<svg width="32" height="32" viewBox="0 0 32 32" fill="none" xmlns="http://www.w3.org/2000/svg">
  <!-- Yellow background with rounded corners -->
  <rect width="32" height="32" rx="6" fill="#EAB308"/>

  <!-- Brain icon with more detail - larger size -->
  <g transform="translate(3, 4)">
    <!-- Left hemisphere -->
    <path d="M2 12C2 8 4 5 7 5C8 5 8.8 5.3 9.5 5.8C9.8 4.5 10.8 3 12.5 3C14.3 3 15.3 4.5 15.3 6V7"
          stroke="#000" stroke-width="2" stroke-linecap="round" fill="none"/>
    <path d="M2 12C2 15 3 18 4.5 20.5C5.2 21.5 6.3 22 7.5 22C9 22 10.5 21 11.5 19.5"
          stroke="#000" stroke-width="2" stroke-linecap="round" fill="none"/>
    <path d="M4 10C3.5 11 3 12.5 3 14C3 16.5 4.5 18 6.5 18"
          stroke="#000" stroke-width="2" stroke-linecap="round" fill="none"/>

    <!-- Right hemisphere -->
    <path d="M24 12C24 8 22 5 19 5C18 5 17.2 5.3 16.5 5.8C16.2 4.5 15.2 3 13.5 3C11.7 3 10.7 4.5 10.7 6V7"
          stroke="#000" stroke-width="2" stroke-linecap="round" fill="none"/>
    <path d="M24 12C24 15 23 18 21.5 20.5C20.8 21.5 19.7 22 18.5 22C17 22 15.5 21 14.5 19.5"
          stroke="#000" stroke-width="2" stroke-linecap="round" fill="none"/>
    <path d="M22 10C22.5 11 23 12.5 23 14C23 16.5 21.5 18 19.5 18"
          stroke="#000" stroke-width="2" stroke-linecap="round" fill="none"/>

    <!-- Center division -->
    <line x1="13" y1="3.5" x2="13" y2="21" stroke="#000" stroke-width="1.8" stroke-linecap="round"/>

    <!-- Additional brain folds/details -->
    <path d="M6.5 9C7.5 8 8.5 7.5 9.5 7.5" stroke="#000" stroke-width="1.3" stroke-linecap="round" fill="none"/>
    <path d="M19.5 9C18.5 8 17.5 7.5 16.5 7.5" stroke="#000" stroke-width="1.3" stroke-linecap="round" fill="none"/>
    <path d="M7 14C8 13.5 9 13 10 13" stroke="#000" stroke-width="1.3" stroke-linecap="round" fill="none"/>
    <path d="M19 14C18 13.5 17 13 16 13" stroke="#000" stroke-width="1.3" stroke-linecap="round" fill="none"/>
    <path d="M8 17C9 16.5 10 16.5 11 16.5" stroke="#000" stroke-width="1.3" stroke-linecap="round" fill="none"/>
    <path d="M18 17C17 16.5 16 16.5 15 16.5" stroke="#000" stroke-width="1.3" stroke-linecap="round" fill="none"/>
  </g>
</svg>
